<?xml version="1.0" standalone="no"?>
<!DOCTYPE svg PUBLIC "-//W3C//DTD SVG 20010904//EN"
 "http://www.w3.org/TR/2001/REC-SVG-20010904/DTD/svg10.dtd">
<svg version="1.0" xmlns="http://www.w3.org/2000/svg"
 width="300.000000pt" height="300.000000pt" viewBox="0 0 300.000000 300.000000"
 preserveAspectRatio="xMidYMid meet">
<metadata>
Created by potrace 1.14, written by Peter Selinger 2001-2017
</metadata>
<g transform="translate(0.000000,300.000000) scale(0.100000,-0.100000)"
fill="#000000" stroke="none">
<path d="M600 2220 l0 -180 360 0 360 0 0 180 0 180 -360 0 -360 0 0 -180z"/>
<path d="M1680 2220 l0 -180 360 0 360 0 0 180 0 180 -360 0 -360 0 0 -180z"/>
<path d="M600 1500 l0 -180 180 0 180 0 0 180 0 180 -180 0 -180 0 0 -180z"/>
<path d="M1320 1320 l0 -360 -360 0 -360 0 0 -180 0 -180 360 0 360 0 0 180 0
180 180 0 180 0 0 -180 0 -180 360 0 360 0 0 180 0 180 -360 0 -360 0 0 360 0
360 -180 0 -180 0 0 -360z"/>
<path d="M2040 1500 l0 -180 180 0 180 0 0 180 0 180 -180 0 -180 0 0 -180z"/>
</g>
</svg>
